<svg xmlns="http://www.w3.org/2000/svg" version="1.1" xmlns:xlink="http://www.w3.org/1999/xlink" xmlns:svgjs="http://svgjs.dev/svgjs" width="1920" height="1080" preserveAspectRatio="none" viewBox="0 0 1920 1080">
    <g mask="url(&quot;#SvgjsMask2269&quot;)" fill="none">
        <use xlink:href="#SvgjsG2275" transform="translate(0, 0)" fill="rgba(0, 191, 166, 0.18)"></use>
        <use xlink:href="#SvgjsG2275" transform="translate(1180, 0)" fill="rgba(0, 191, 166, 0.18)"></use>
    </g>
    <defs>
        <mask id="SvgjsMask2269">
            <rect width="1920" height="1080" fill="#ffffff"></rect>
        </mask>
        <g id="SvgjsG2271">
            <path d="M10.71 1.63C6.65-0.1 2.31 0.99 1.01 4.04c-0.63 1.5-0.42 3.19 0.44 4.73l-1.41 3.32 4.58-0.11c0.43 0.27 0.9 0.51 1.39 0.71 4.06 1.72 8.39 0.64 9.69-2.41C17 7.22 14.76 3.35 10.71 1.63z" fill-rule="evenodd"></path>
        </g>
        <g id="SvgjsG2272">
            <path d="M8.56-0.45l5.11 2.17-2.04 4.82L16.44 8.58l-2.16 5.1L9.5 11.65 7.46 16.46l-5.13-2.18L4.37 9.47-0.45 7.43l2.17-5.1 4.79 2.03z"></path>
        </g>
        <g id="SvgjsG2270">
            <path d="M14.72 8.12L3.38 14.69l4.55-6.08-3.91-1.58L8.99-0.27l4.71 2L9.67 5.98z"></path>
        </g>
        <g id="SvgjsG2274">
            <path d="M5.9 12.93C3.2 11.78 1.93 8.65 3.08 5.94 4.23 3.24 7.36 1.97 10.06 3.12s3.97 4.28 2.83 6.99c-1.15 2.71-4.28 3.97-6.99 2.82z m0.51-1.21c2.03 0.86 4.39-0.09 5.26-2.13 0.86-2.03-0.09-4.4-2.12-5.26-2.04-0.86-4.39 0.09-5.26 2.13-0.87 2.04 0.09 4.39 2.12 5.26z" fill-rule="evenodd"></path>
            <path d="M7.73 8.68a0.4 0.4 0 0 1-0.34-0.17 0.4 0.4 0 0 1-0.06-0.33L8.54 5.33a0.4 0.4 0 0 1 0.74 0.31l-0.94 2.22 2.27-0.09a0.4 0.4 0 0 1 0.41 0.38c0.01 0.22-0.16 0.41-0.38 0.42l-2.91 0.11zM4.11 11.31l4.21 1.79-1.34 3.16L2.77 14.47zM9.02-0.26l4.21 1.79-1.34 3.16L7.68 2.9z" fill-rule="evenodd"></path>
        </g>
        <g id="SvgjsG2273">
            <path d="M17.2 6.33L7.58 8.98 2.81 0.22z m-3.46 8.16L10.87 9.22l5.79-1.6zM2.24 1.5l2.87 5.27L-0.68 8.38z"></path>
            <path d="M9.82 9.49L7.06 10.24 5.68 7.74-1.18 9.61l14.41 6.12z"></path>
        </g>
        <g id="SvgjsG2275">
            <use xlink:href="#SvgjsG2270" transform="translate(0, 0) scale(2)" fill="rgba(0, 191, 166, 0.18)"></use>
            <use xlink:href="#SvgjsG2271" transform="translate(0, 118) scale(2)" fill="rgba(0, 191, 166, 0.18)"></use>
            <use xlink:href="#SvgjsG2271" transform="translate(0, 236) scale(2)" fill="rgba(0, 191, 166, 0.18)"></use>
            <use xlink:href="#SvgjsG2271" transform="translate(0, 354) scale(2)" fill="rgba(0, 191, 166, 0.18)"></use>
            <use xlink:href="#SvgjsG2272" transform="translate(0, 472) scale(2)" fill="rgba(0, 191, 166, 0.18)"></use>
            <use xlink:href="#SvgjsG2270" transform="translate(0, 590) scale(2)" fill="rgba(0, 191, 166, 0.18)"></use>
            <use xlink:href="#SvgjsG2273" transform="translate(0, 708) scale(2)" fill="rgba(0, 191, 166, 0.18)"></use>
            <use xlink:href="#SvgjsG2273" transform="translate(0, 826) scale(2)" fill="rgba(0, 191, 166, 0.18)"></use>
            <use xlink:href="#SvgjsG2274" transform="translate(0, 944) scale(2)" fill="rgba(0, 191, 166, 0.18)"></use>
            <use xlink:href="#SvgjsG2274" transform="translate(0, 1062) scale(2)" fill="rgba(0, 191, 166, 0.18)"></use>
            <use xlink:href="#SvgjsG2274" transform="translate(118, 0) scale(2)" fill="rgba(0, 191, 166, 0.18)"></use>
            <use xlink:href="#SvgjsG2271" transform="translate(118, 118) scale(2)" fill="rgba(0, 191, 166, 0.18)"></use>
            <use xlink:href="#SvgjsG2274" transform="translate(118, 236) scale(2)" fill="rgba(0, 191, 166, 0.18)"></use>
            <use xlink:href="#SvgjsG2272" transform="translate(118, 354) scale(2)" fill="rgba(0, 191, 166, 0.18)"></use>
            <use xlink:href="#SvgjsG2271" transform="translate(118, 472) scale(2)" fill="rgba(0, 191, 166, 0.18)"></use>
            <use xlink:href="#SvgjsG2272" transform="translate(118, 590) scale(2)" fill="rgba(0, 191, 166, 0.18)"></use>
            <use xlink:href="#SvgjsG2273" transform="translate(118, 708) scale(2)" fill="rgba(0, 191, 166, 0.18)"></use>
            <use xlink:href="#SvgjsG2270" transform="translate(118, 826) scale(2)" fill="rgba(0, 191, 166, 0.18)"></use>
            <use xlink:href="#SvgjsG2270" transform="translate(118, 944) scale(2)" fill="rgba(0, 191, 166, 0.18)"></use>
            <use xlink:href="#SvgjsG2274" transform="translate(118, 1062) scale(2)" fill="rgba(0, 191, 166, 0.18)"></use>
            <use xlink:href="#SvgjsG2273" transform="translate(236, 0) scale(2)" fill="rgba(0, 191, 166, 0.18)"></use>
            <use xlink:href="#SvgjsG2273" transform="translate(236, 118) scale(2)" fill="rgba(0, 191, 166, 0.18)"></use>
            <use xlink:href="#SvgjsG2274" transform="translate(236, 236) scale(2)" fill="rgba(0, 191, 166, 0.18)"></use>
            <use xlink:href="#SvgjsG2273" transform="translate(236, 354) scale(2)" fill="rgba(0, 191, 166, 0.18)"></use>
            <use xlink:href="#SvgjsG2271" transform="translate(236, 472) scale(2)" fill="rgba(0, 191, 166, 0.18)"></use>
            <use xlink:href="#SvgjsG2273" transform="translate(236, 590) scale(2)" fill="rgba(0, 191, 166, 0.18)"></use>
            <use xlink:href="#SvgjsG2274" transform="translate(236, 708) scale(2)" fill="rgba(0, 191, 166, 0.18)"></use>
            <use xlink:href="#SvgjsG2274" transform="translate(236, 826) scale(2)" fill="rgba(0, 191, 166, 0.18)"></use>
            <use xlink:href="#SvgjsG2274" transform="translate(236, 944) scale(2)" fill="rgba(0, 191, 166, 0.18)"></use>
            <use xlink:href="#SvgjsG2271" transform="translate(236, 1062) scale(2)" fill="rgba(0, 191, 166, 0.18)"></use>
            <use xlink:href="#SvgjsG2271" transform="translate(354, 0) scale(2)" fill="rgba(0, 191, 166, 0.18)"></use>
            <use xlink:href="#SvgjsG2273" transform="translate(354, 118) scale(2)" fill="rgba(0, 191, 166, 0.18)"></use>
            <use xlink:href="#SvgjsG2273" transform="translate(354, 236) scale(2)" fill="rgba(0, 191, 166, 0.18)"></use>
            <use xlink:href="#SvgjsG2272" transform="translate(354, 354) scale(2)" fill="rgba(0, 191, 166, 0.18)"></use>
            <use xlink:href="#SvgjsG2270" transform="translate(354, 472) scale(2)" fill="rgba(0, 191, 166, 0.18)"></use>
            <use xlink:href="#SvgjsG2270" transform="translate(354, 590) scale(2)" fill="rgba(0, 191, 166, 0.18)"></use>
            <use xlink:href="#SvgjsG2272" transform="translate(354, 708) scale(2)" fill="rgba(0, 191, 166, 0.18)"></use>
            <use xlink:href="#SvgjsG2270" transform="translate(354, 826) scale(2)" fill="rgba(0, 191, 166, 0.18)"></use>
            <use xlink:href="#SvgjsG2270" transform="translate(354, 944) scale(2)" fill="rgba(0, 191, 166, 0.18)"></use>
            <use xlink:href="#SvgjsG2271" transform="translate(354, 1062) scale(2)" fill="rgba(0, 191, 166, 0.18)"></use>
            <use xlink:href="#SvgjsG2273" transform="translate(472, 0) scale(2)" fill="rgba(0, 191, 166, 0.18)"></use>
            <use xlink:href="#SvgjsG2274" transform="translate(472, 118) scale(2)" fill="rgba(0, 191, 166, 0.18)"></use>
            <use xlink:href="#SvgjsG2272" transform="translate(472, 236) scale(2)" fill="rgba(0, 191, 166, 0.18)"></use>
            <use xlink:href="#SvgjsG2272" transform="translate(472, 354) scale(2)" fill="rgba(0, 191, 166, 0.18)"></use>
            <use xlink:href="#SvgjsG2273" transform="translate(472, 472) scale(2)" fill="rgba(0, 191, 166, 0.18)"></use>
            <use xlink:href="#SvgjsG2272" transform="translate(472, 590) scale(2)" fill="rgba(0, 191, 166, 0.18)"></use>
            <use xlink:href="#SvgjsG2270" transform="translate(472, 708) scale(2)" fill="rgba(0, 191, 166, 0.18)"></use>
            <use xlink:href="#SvgjsG2274" transform="translate(472, 826) scale(2)" fill="rgba(0, 191, 166, 0.18)"></use>
            <use xlink:href="#SvgjsG2271" transform="translate(472, 944) scale(2)" fill="rgba(0, 191, 166, 0.18)"></use>
            <use xlink:href="#SvgjsG2272" transform="translate(472, 1062) scale(2)" fill="rgba(0, 191, 166, 0.18)"></use>
            <use xlink:href="#SvgjsG2273" transform="translate(590, 0) scale(2)" fill="rgba(0, 191, 166, 0.18)"></use>
            <use xlink:href="#SvgjsG2274" transform="translate(590, 118) scale(2)" fill="rgba(0, 191, 166, 0.18)"></use>
            <use xlink:href="#SvgjsG2273" transform="translate(590, 236) scale(2)" fill="rgba(0, 191, 166, 0.18)"></use>
            <use xlink:href="#SvgjsG2274" transform="translate(590, 354) scale(2)" fill="rgba(0, 191, 166, 0.18)"></use>
            <use xlink:href="#SvgjsG2270" transform="translate(590, 472) scale(2)" fill="rgba(0, 191, 166, 0.18)"></use>
            <use xlink:href="#SvgjsG2273" transform="translate(590, 590) scale(2)" fill="rgba(0, 191, 166, 0.18)"></use>
            <use xlink:href="#SvgjsG2274" transform="translate(590, 708) scale(2)" fill="rgba(0, 191, 166, 0.18)"></use>
            <use xlink:href="#SvgjsG2272" transform="translate(590, 826) scale(2)" fill="rgba(0, 191, 166, 0.18)"></use>
            <use xlink:href="#SvgjsG2272" transform="translate(590, 944) scale(2)" fill="rgba(0, 191, 166, 0.18)"></use>
            <use xlink:href="#SvgjsG2274" transform="translate(590, 1062) scale(2)" fill="rgba(0, 191, 166, 0.18)"></use>
            <use xlink:href="#SvgjsG2270" transform="translate(708, 0) scale(2)" fill="rgba(0, 191, 166, 0.18)"></use>
            <use xlink:href="#SvgjsG2272" transform="translate(708, 118) scale(2)" fill="rgba(0, 191, 166, 0.18)"></use>
            <use xlink:href="#SvgjsG2271" transform="translate(708, 236) scale(2)" fill="rgba(0, 191, 166, 0.18)"></use>
            <use xlink:href="#SvgjsG2274" transform="translate(708, 354) scale(2)" fill="rgba(0, 191, 166, 0.18)"></use>
            <use xlink:href="#SvgjsG2273" transform="translate(708, 472) scale(2)" fill="rgba(0, 191, 166, 0.18)"></use>
            <use xlink:href="#SvgjsG2271" transform="translate(708, 590) scale(2)" fill="rgba(0, 191, 166, 0.18)"></use>
            <use xlink:href="#SvgjsG2272" transform="translate(708, 708) scale(2)" fill="rgba(0, 191, 166, 0.18)"></use>
            <use xlink:href="#SvgjsG2271" transform="translate(708, 826) scale(2)" fill="rgba(0, 191, 166, 0.18)"></use>
            <use xlink:href="#SvgjsG2273" transform="translate(708, 944) scale(2)" fill="rgba(0, 191, 166, 0.18)"></use>
            <use xlink:href="#SvgjsG2274" transform="translate(708, 1062) scale(2)" fill="rgba(0, 191, 166, 0.18)"></use>
            <use xlink:href="#SvgjsG2271" transform="translate(826, 0) scale(2)" fill="rgba(0, 191, 166, 0.18)"></use>
            <use xlink:href="#SvgjsG2274" transform="translate(826, 118) scale(2)" fill="rgba(0, 191, 166, 0.18)"></use>
            <use xlink:href="#SvgjsG2273" transform="translate(826, 236) scale(2)" fill="rgba(0, 191, 166, 0.18)"></use>
            <use xlink:href="#SvgjsG2272" transform="translate(826, 354) scale(2)" fill="rgba(0, 191, 166, 0.18)"></use>
            <use xlink:href="#SvgjsG2274" transform="translate(826, 472) scale(2)" fill="rgba(0, 191, 166, 0.18)"></use>
            <use xlink:href="#SvgjsG2270" transform="translate(826, 590) scale(2)" fill="rgba(0, 191, 166, 0.18)"></use>
            <use xlink:href="#SvgjsG2274" transform="translate(826, 708) scale(2)" fill="rgba(0, 191, 166, 0.18)"></use>
            <use xlink:href="#SvgjsG2274" transform="translate(826, 826) scale(2)" fill="rgba(0, 191, 166, 0.18)"></use>
            <use xlink:href="#SvgjsG2270" transform="translate(826, 944) scale(2)" fill="rgba(0, 191, 166, 0.18)"></use>
            <use xlink:href="#SvgjsG2274" transform="translate(826, 1062) scale(2)" fill="rgba(0, 191, 166, 0.18)"></use>
            <use xlink:href="#SvgjsG2272" transform="translate(944, 0) scale(2)" fill="rgba(0, 191, 166, 0.18)"></use>
            <use xlink:href="#SvgjsG2271" transform="translate(944, 118) scale(2)" fill="rgba(0, 191, 166, 0.18)"></use>
            <use xlink:href="#SvgjsG2271" transform="translate(944, 236) scale(2)" fill="rgba(0, 191, 166, 0.18)"></use>
            <use xlink:href="#SvgjsG2271" transform="translate(944, 354) scale(2)" fill="rgba(0, 191, 166, 0.18)"></use>
            <use xlink:href="#SvgjsG2273" transform="translate(944, 472) scale(2)" fill="rgba(0, 191, 166, 0.18)"></use>
            <use xlink:href="#SvgjsG2273" transform="translate(944, 590) scale(2)" fill="rgba(0, 191, 166, 0.18)"></use>
            <use xlink:href="#SvgjsG2272" transform="translate(944, 708) scale(2)" fill="rgba(0, 191, 166, 0.18)"></use>
            <use xlink:href="#SvgjsG2271" transform="translate(944, 826) scale(2)" fill="rgba(0, 191, 166, 0.18)"></use>
            <use xlink:href="#SvgjsG2270" transform="translate(944, 944) scale(2)" fill="rgba(0, 191, 166, 0.18)"></use>
            <use xlink:href="#SvgjsG2270" transform="translate(944, 1062) scale(2)" fill="rgba(0, 191, 166, 0.18)"></use>
            <use xlink:href="#SvgjsG2274" transform="translate(1062, 0) scale(2)" fill="rgba(0, 191, 166, 0.18)"></use>
            <use xlink:href="#SvgjsG2272" transform="translate(1062, 118) scale(2)" fill="rgba(0, 191, 166, 0.18)"></use>
            <use xlink:href="#SvgjsG2272" transform="translate(1062, 236) scale(2)" fill="rgba(0, 191, 166, 0.18)"></use>
            <use xlink:href="#SvgjsG2270" transform="translate(1062, 354) scale(2)" fill="rgba(0, 191, 166, 0.18)"></use>
            <use xlink:href="#SvgjsG2273" transform="translate(1062, 472) scale(2)" fill="rgba(0, 191, 166, 0.18)"></use>
            <use xlink:href="#SvgjsG2273" transform="translate(1062, 590) scale(2)" fill="rgba(0, 191, 166, 0.18)"></use>
            <use xlink:href="#SvgjsG2272" transform="translate(1062, 708) scale(2)" fill="rgba(0, 191, 166, 0.18)"></use>
            <use xlink:href="#SvgjsG2273" transform="translate(1062, 826) scale(2)" fill="rgba(0, 191, 166, 0.18)"></use>
            <use xlink:href="#SvgjsG2271" transform="translate(1062, 944) scale(2)" fill="rgba(0, 191, 166, 0.18)"></use>
            <use xlink:href="#SvgjsG2273" transform="translate(1062, 1062) scale(2)" fill="rgba(0, 191, 166, 0.18)"></use>
        </g>
    </defs>
</svg>