<svg width="1920" height="1070" viewBox="0 0 1920 1070" fill="none" xmlns="http://www.w3.org/2000/svg">
<mask id="mask0_26_1235" style="mask-type:luminance" maskUnits="userSpaceOnUse" x="0" y="0" width="1920" height="1080">
<path d="M1920 0H0V1080H1920V0Z" fill="white"/>
</mask>
<g mask="url(#mask0_26_1235)">
<path d="M-60.2817 1041.43C67.72 870.943 323.72 281.957 579.718 189C835.72 96.043 963.72 555.429 1219.72 576.643C1475.72 597.857 1603.72 285.043 1859.72 295.072C2115.72 305.1 2487.67 586.672 2499.72 626.786C2511.77 666.9 2035.95 521.872 1920 495.643" stroke="#009688" stroke-width="2"/>
<path d="M-577.489 896.786C-449.493 777.215 -193.493 320.529 62.5115 298.929C318.507 277.329 446.507 746.743 702.512 788.786C958.507 830.829 1086.51 557.743 1342.51 509.143C1598.51 460.543 1867.01 646.843 1982.51 545.786C2098.01 444.729 1932.51 112.243 1920 3.85742" stroke="#009688" stroke-width="2"/>
<path d="M-548.763 808.072C-420.76 681.558 -164.76 187.843 91.2375 175.501C347.24 163.158 475.24 740.958 731.238 746.358C987.24 751.758 1115.24 195.558 1371.24 202.501C1627.24 209.443 1901.48 771.044 2011.24 781.072C2120.99 791.101 1938.25 358.329 1920 252.643" stroke="#009688" stroke-width="2"/>
<path d="M-1094.27 360.644C-966.267 455.915 -710.267 859.758 -454.272 837.001C-198.267 814.244 -70.2668 231.044 185.728 246.858C441.733 262.672 569.733 894.086 825.728 916.072C1081.73 938.058 1246.88 402.301 1465.73 356.786C1684.59 311.272 1829.15 622.158 1920 688.501" stroke="#009688" stroke-width="2"/>
</g>
</svg>
