<svg width="1705" height="864" viewBox="0 0 1705 864" fill="none" xmlns="http://www.w3.org/2000/svg">
<path d="M1813 -108H-107V972H1813V-108Z" fill="#028B79"/>
<path d="M-107 244.943L-53.667 242.075C-0.333 239.207 106.333 233.471 213 232.581C319.667 231.692 426.333 235.65 533 236.095C639.667 236.54 746.333 233.472 853 195.183C959.667 156.894 1066.33 83.3834 1173 77.1754C1279.67 70.9674 1386.33 132.06 1493 113.336C1599.67 94.6124 1706.33 -3.93063 1759.67 -53.2026L1813 -102.474V972H1759.67C1706.33 972 1599.67 972 1493 972C1386.33 972 1279.67 972 1173 972C1066.33 972 959.667 972 853 972C746.333 972 639.667 972 533 972C426.333 972 319.667 972 213 972C106.333 972 -0.333 972 -53.667 972H-107V244.943Z" fill="#02685B"/>
<path d="M-107 519.624L-53.667 497.702C-0.333 475.78 106.333 431.937 213 391.356C319.667 350.774 426.333 313.455 533 332.719C639.667 351.983 746.333 427.829 853 441.505C959.667 455.181 1066.33 406.687 1173 382.414C1279.67 358.141 1386.33 358.09 1493 393.274C1599.67 428.458 1706.33 498.877 1759.67 534.087L1813 569.296V972H1759.67C1706.33 972 1599.67 972 1493 972C1386.33 972 1279.67 972 1173 972C1066.33 972 959.667 972 853 972C746.333 972 639.667 972 533 972C426.333 972 319.667 972 213 972C106.333 972 -0.333 972 -53.667 972H-107V519.624Z" fill="#01463D"/>
<path d="M-107 944.96L-53.667 899.285C-0.333 853.611 106.333 762.263 213 724.623C319.667 686.983 426.333 703.052 533 738.273C639.667 773.493 746.333 827.866 853 866.33C959.667 904.794 1066.33 927.35 1173 912.514C1279.67 897.679 1386.33 845.452 1493 792.313C1599.67 739.174 1706.33 685.123 1759.67 658.097L1813 631.072V972H1759.67C1706.33 972 1599.67 972 1493 972C1386.33 972 1279.67 972 1173 972C1066.33 972 959.667 972 853 972C746.333 972 639.667 972 533 972C426.333 972 319.667 972 213 972C106.333 972 -0.333 972 -53.667 972H-107V944.96Z" fill="#01231E"/>
</svg>
