<svg width="1705" height="864" viewBox="0 0 1705 864" fill="none" xmlns="http://www.w3.org/2000/svg">
<path d="M1705 0H0V864H1705V0Z" fill="#028B79"/>
<path d="M0 282.354L47.3608 280.06C94.7225 277.766 189.444 273.177 284.167 272.465C378.889 271.754 473.611 274.92 568.333 275.276C663.056 275.632 757.777 273.178 852.5 242.547C947.222 211.915 1041.94 153.107 1136.67 148.14C1231.39 143.174 1326.11 192.048 1420.83 177.069C1515.56 162.09 1610.28 83.2553 1657.64 43.8377L1705 4.4209V864H1657.64C1610.28 864 1515.56 864 1420.83 864C1326.11 864 1231.39 864 1136.67 864C1041.94 864 947.222 864 852.5 864C757.777 864 663.056 864 568.333 864C473.611 864 378.889 864 284.167 864C189.444 864 94.7225 864 47.3608 864H0V282.354Z" fill="#41A89B"/>
<path d="M0 502.099L47.3608 484.562C94.7225 467.024 189.444 431.95 284.167 399.485C378.889 367.019 473.611 337.164 568.333 352.575C663.056 367.986 757.777 428.663 852.5 439.604C947.222 450.545 1041.94 411.75 1136.67 392.331C1231.39 372.913 1326.11 372.872 1420.83 401.019C1515.56 429.166 1610.28 485.502 1657.64 513.67L1705 541.837V864H1657.64C1610.28 864 1515.56 864 1420.83 864C1326.11 864 1231.39 864 1136.67 864C1041.94 864 947.222 864 852.5 864C757.777 864 663.056 864 568.333 864C473.611 864 378.889 864 284.167 864C189.444 864 94.7225 864 47.3608 864H0V502.099Z" fill="#81C5BC"/>
<path d="M0 842.368L47.3608 805.828C94.7225 769.289 189.444 696.211 284.167 666.099C378.889 635.987 473.611 648.842 568.333 677.019C663.056 705.195 757.777 748.693 852.5 779.464C947.222 810.235 1041.94 828.28 1136.67 816.411C1231.39 804.543 1326.11 762.762 1420.83 720.251C1515.56 677.739 1610.28 634.499 1657.64 612.878L1705 591.258V864H1657.64C1610.28 864 1515.56 864 1420.83 864C1326.11 864 1231.39 864 1136.67 864C1041.94 864 947.222 864 852.5 864C757.777 864 663.056 864 568.333 864C473.611 864 378.889 864 284.167 864C189.444 864 94.7225 864 47.3608 864H0V842.368Z" fill="#C0E2DE"/>
</svg>
