<svg width="100" height="100" fill="currentColor" viewBox="0 0 24 24" xmlns="http://www.w3.org/2000/svg">
<path d="M12 15.75a3.75 3.75 0 1 1 0-7.5 3.75 3.75 0 0 1 0 7.5ZM12 17a5 5 0 1 0 0-10 5 5 0 0 0 0 10Zm0-15a.625.625 0 0 1 .625.625v2.5a.625.625 0 1 1-1.25 0v-2.5A.625.625 0 0 1 12 2Zm0 16.25a.624.624 0 0 1 .625.625v2.5a.624.624 0 1 1-1.25 0v-2.5A.624.624 0 0 1 12 18.25ZM22 12a.624.624 0 0 1-.625.625h-2.5a.624.624 0 1 1 0-1.25h2.5A.624.624 0 0 1 22 12ZM5.75 12a.625.625 0 0 1-.625.625h-2.5a.625.625 0 1 1 0-1.25h2.5A.625.625 0 0 1 5.75 12Zm13.321-7.071a.625.625 0 0 1 0 .883l-1.767 1.77a.626.626 0 0 1-.884-.886l1.767-1.767a.625.625 0 0 1 .884 0ZM7.58 16.42a.625.625 0 0 1 0 .884L5.812 19.07a.625.625 0 0 1-.883-.884l1.767-1.767a.625.625 0 0 1 .884 0Zm11.491 2.651a.625.625 0 0 1-.884 0l-1.767-1.767a.625.625 0 0 1 .884-.884l1.767 1.767a.625.625 0 0 1 0 .884ZM7.58 7.581a.625.625 0 0 1-.884 0L4.93 5.812a.625.625 0 1 1 .883-.883L7.58 6.696a.625.625 0 0 1 0 .885Z"></path>
</svg>