<svg width="100" height="100" fill="currentColor" viewBox="0 0 24 24" xmlns="http://www.w3.org/2000/svg">
<path d="M10.08 2.734a.922.922 0 0 1 .096 1.03 8.65 8.65 0 0 0-1.054 4.152c0 4.825 3.934 8.732 8.782 8.732.632 0 1.248-.066 1.84-.192a.945.945 0 0 1 .971.38.88.88 0 0 1-.037 1.071 10.02 10.02 0 0 1-7.785 3.694C7.36 21.6 2.88 17.144 2.88 11.653c0-4.133 2.537-7.678 6.149-9.18a.903.903 0 0 1 1.05.261Zm-1.37 1.24a8.723 8.723 0 0 0-4.6 7.679c0 4.824 3.935 8.73 8.783 8.73a8.78 8.78 0 0 0 6.246-2.594c-.405.05-.816.076-1.235.076-5.532 0-10.012-4.457-10.012-9.948 0-1.4.29-2.734.817-3.943Z"></path>
</svg>