<svg width="1705" height="864" viewBox="0 0 1705 864" fill="none" xmlns="http://www.w3.org/2000/svg">
<g clip-path="url(#clip0_26_1364)">
<path d="M1638.93 203.34L2210.11 249.914M1975.67 1153.8L1557.94 945.02L1108.25 832.6L658.556 654.48L85.25 743.54M85.25 743.54L628.719 984.44L269.603 1153.07L85.25 743.54ZM85.25 743.54L-419.856 588.78L217.388 426.72L-66.0687 203.34L269.603 -14.9295L-147.056 -222.979" stroke="#009688" stroke-opacity="0.35" stroke-width="2.5"/>
<path d="M-66.0687 203.34L505.106 250.06L831.188 426.72L1285.14 588.78L657.491 653.75L216.322 425.99M788.563 1190.3L628.719 984.44" stroke="#009688" stroke-opacity="0.35" stroke-width="2.5"/>
<path d="M1108.25 832.6L1231.86 1098.32L1557.94 945.02L1790.25 743.54L1285.14 588.78L1108.25 832.6ZM1108.25 832.6L628.719 984.44L658.556 654.48L831.187 426.72L1148.74 261.74L1638.93 203.34L1230.8 -70.4096L788.562 22.3004L628.719 -183.56L269.603 -14.9296L505.106 250.06L217.387 426.72L85.2499 743.54L-147.056 945.02L270.669 1153.8" stroke="#009688" stroke-opacity="0.35" stroke-width="2.5"/>
<path d="M1108.25 -335.4L1232.93 -68.9504L1557.94 -222.98M1285.14 588.78L1148.74 261.74M1148.74 261.74L505.106 250.06L788.562 22.2996M1148.74 261.74L1922.39 426.72M831.187 426.72H217.387" stroke="#009688" stroke-opacity="0.35" stroke-width="2.5"/>
<path d="M-473.138 -69.68L269.603 -14.93L788.563 22.3001L1148.74 261.74L1230.8 -70.41M1230.8 -70.41L1975.67 -14.2L1638.93 203.34L1922.39 426.72L1285.14 588.78L1557.94 945.02M1230.8 -70.41L628.719 -183.56M1231.86 1098.32L628.719 984.44M85.25 -424.46L270.669 -14.2M217.388 426.72L-556.256 261.74" stroke="#009688" stroke-opacity="0.35" stroke-width="2.5"/>
<path d="M1638.93 210.639C1644.82 210.639 1649.59 207.371 1649.59 203.339C1649.59 199.307 1644.82 196.039 1638.93 196.039C1633.05 196.039 1628.27 199.307 1628.27 203.339C1628.27 207.371 1633.05 210.639 1638.93 210.639Z" fill="#00FFE7" fill-opacity="0.15"/>
<path d="M1148.74 269.039C1154.63 269.039 1159.4 265.771 1159.4 261.739C1159.4 257.708 1154.63 254.439 1148.74 254.439C1142.86 254.439 1138.09 257.708 1138.09 261.739C1138.09 265.771 1142.86 269.039 1148.74 269.039Z" fill="#00FFE7" fill-opacity="0.15"/>
<path d="M1285.14 596.079C1291.03 596.079 1295.8 592.811 1295.8 588.779C1295.8 584.748 1291.03 581.479 1285.14 581.479C1279.26 581.479 1274.49 584.748 1274.49 588.779C1274.49 592.811 1279.26 596.079 1285.14 596.079Z" fill="#00FFE7" fill-opacity="0.15"/>
<path d="M1108.25 839.9C1114.14 839.9 1118.91 836.631 1118.91 832.6C1118.91 828.568 1114.14 825.3 1108.25 825.3C1102.36 825.3 1097.59 828.568 1097.59 832.6C1097.59 836.631 1102.36 839.9 1108.25 839.9Z" fill="#00FFE7" fill-opacity="0.15"/>
<path d="M658.556 661.78C664.442 661.78 669.213 658.511 669.213 654.48C669.213 650.448 664.442 647.18 658.556 647.18C652.671 647.18 647.9 650.448 647.9 654.48C647.9 658.511 652.671 661.78 658.556 661.78Z" fill="#00FFE7" fill-opacity="0.15"/>
<path d="M85.25 750.839C91.1353 750.839 95.9062 747.571 95.9062 743.539C95.9062 739.508 91.1353 736.239 85.25 736.239C79.3647 736.239 74.5938 739.508 74.5938 743.539C74.5938 747.571 79.3647 750.839 85.25 750.839Z" fill="#00FFE7" fill-opacity="0.15"/>
<path d="M217.387 434.02C223.273 434.02 228.044 430.752 228.044 426.72C228.044 422.688 223.273 419.42 217.387 419.42C211.502 419.42 206.731 422.688 206.731 426.72C206.731 430.752 211.502 434.02 217.387 434.02Z" fill="#00FFE7" fill-opacity="0.15"/>
<path d="M788.562 29.6C794.448 29.6 799.219 26.3317 799.219 22.3C799.219 18.2683 794.448 15 788.562 15C782.677 15 777.906 18.2683 777.906 22.3C777.906 26.3317 782.677 29.6 788.562 29.6Z" fill="#00FFE7" fill-opacity="0.15"/>
<path d="M505.106 257.36C510.991 257.36 515.762 254.091 515.762 250.06C515.762 246.028 510.991 242.76 505.106 242.76C499.221 242.76 494.45 246.028 494.45 250.06C494.45 254.091 499.221 257.36 505.106 257.36Z" fill="#00FFE7" fill-opacity="0.15"/>
<path d="M831.188 434.02C837.073 434.02 841.844 430.752 841.844 426.72C841.844 422.688 837.073 419.42 831.188 419.42C825.302 419.42 820.531 422.688 820.531 426.72C820.531 430.752 825.302 434.02 831.188 434.02Z" fill="#00FFE7" fill-opacity="0.15"/>
</g>
<defs>
<clipPath id="clip0_26_1364">
<rect width="1705" height="1168" fill="white" transform="translate(0 -131)"/>
</clipPath>
</defs>
</svg>
